<svg xmlns="http://www.w3.org/2000/svg" viewBox="0 0 100 100" x="0px" y="0px"><path d="m11.284541 32.109988c-3.3755877 0-6.284541 2.486268-6.284541 5.746825v48.528754c0 3.261292 2.8987864 5.780433 6.284541 5.780433h77.430918c3.385755 0 6.284541-2.519141 6.284541-5.780433v-48.528754c0-3.260557-2.908952-5.746825-6.284541-5.746825zm0 2.554145h77.430918c2.130611 0 3.730396 1.497658 3.730396 3.19268v3.293504h-84.89171v-3.293504c0-1.695022 1.599785-3.19268 3.730396-3.19268zm-3.730396 19.391337h84.89171v32.330097c0 1.696437-1.609951 3.226288-3.730396 3.226288h-77.430918c-2.1204453 0-3.730396-1.529851-3.730396-3.226288z"/><path d="m33.504145 10.499399c-1.441059 2.665626-1.474389 5.279689-.478792 7.337794.995011 2.056894 2.824366 3.537811 4.902591 4.754729 2.671475 1.564301 5.612732 2.667556 8.286325 3.709636-6.234358 1.136627-11.269787.588642-14.839543-.463706-4.373567-1.289309-6.069808-2.51706-6.556235-3.055821-.551575-.610915-1.651721-.587759-2.177102.04583-.52538.63358-.344493 1.719001.357963 2.147959.619491.378294 2.745919 2.211224 7.589261 3.638218 4.746585 1.398485 11.64089 2.031848 20.268203-.416428.286673.05332 4.629983.880791 10.034521.563284 5.587566-.32826 12.348929-1.858699 16.476088-7.091357.474436-.60152.362571-1.579488-.237276-2.05604-.599844-.476549-1.581418-.367273-2.056439.233785-3.333981 4.218597-9.203696 5.695837-14.391932 5.999991-2.223993.13038-4.069735.0042-5.698232-.128749 1.391113-.869069 1.998618-1.077328 3.783062-2.583066 1.686801-1.423346 3.287732-3.028459 4.304102-4.867388 1.014476-1.835502 1.403112-4.135072.191115-6.09555-.781629-1.264326-2.22587-2.018773-3.690524-1.965458-1.464434.05331-2.887864.778581-4.214579 2.021788-2.093231 1.961482-3.754897 5.729415-4.88348 10.600825-1.54274-2.953899-3.057264-5.653515-4.554561-7.945333-1.745622-2.671913-3.597492-5.1237627-5.751544-6.4315089-2.459584-1.4932393-5.515895-.075306-6.662992 2.0465659zm5.136088.407743c1.406035.719442 3.173327 3.027774 4.828158 5.55238 1.587076 2.421238 3.017597 5.11483 4.125056 7.232177-2.823466-1.123553-5.746445-2.17681-8.190768-3.608041-1.824573-1.068347-3.186393-2.269845-3.792115-3.519526-.60534-1.248891-.775713-2.613718.396311-4.689347.693562-1.228285 1.566306-1.513635 2.633358-.967643zm22.163255 2.555732c.722766.605239.472372 2.123343-.250462 3.431182-.722597 1.307414-2.090858 2.737991-3.628159 4.033525-1.673426 1.410249-2.315503 1.668731-3.629163 2.487506 1.050123-4.411729 2.464434-7.685988 3.986246-9.082972 1.33793-1.228184 2.319658-1.875687 3.521538-.869241z"/><path d="m20.242187 58.262843l-1.496093 4.595703h-4.832031l3.914062 2.839844-1.494141 4.597656 3.910157-2.83789 3.912109 2.83789-1.494141-4.597656 3.910157-2.839844-4.835938-.0039-1.494141-4.591797z"/><path d="m35.117188 58.262843l-1.496094 4.595703h-4.832031l3.912109 2.841797-1.492188 4.595703 3.908204-2.83789 3.914062 2.83789-1.494141-4.595703 3.908204-2.841797-4.835938-.0039-1.492187-4.591797z"/><path d="m49.992187 58.262843l-1.496093 4.595703h-4.832031l3.912109 2.839844-1.492188 4.597656 3.908203-2.83789 3.91211 2.83789-1.492188-4.597656 3.908204-2.839844-4.835938-.0039-1.492188-4.591797z"/><path d="m64.871094 58.262843l-1.494141 4.595703h-4.833984l3.914062 2.839844-1.49414 4.597656 3.910156-2.83789 3.912109 2.83789-1.492187-4.597656 3.908203-2.839844-4.835938-.0039-1.49414-4.591797z"/><path d="m79.755859 58.264843l-1.49414 4.597657h-4.833985l3.914063 2.839843-1.494141 4.597657 3.910157-2.839844 3.912109 2.839844-1.492188-4.597657 3.908203-2.839843-4.835937-.0039-1.494141-4.59375z"/>
</svg>
